<svg width="760" height="884" viewBox="0 0 760 884" fill="none" xmlns="http://www.w3.org/2000/svg">
<path d="M378.084 0.00305176C378.853 0.00204468 379.621 0.0010376 380.412 0C393.915 0.011907 407.083 0.865699 420.397 3.25305C421.494 3.44593 421.494 3.44593 422.613 3.6427C457.864 10.1574 492.793 26.4023 520.397 49.2531C520.974 49.7289 521.552 50.2047 522.146 50.6949C533.713 60.2827 544.089 70.4182 553.397 82.2531C554.584 83.7148 554.584 83.7148 555.795 85.2062C579.598 115.091 594.338 151.509 599.397 189.253C599.485 189.897 599.574 190.54 599.665 191.203C600.607 199.17 600.564 207.154 600.596 215.164C600.608 217.855 600.628 220.546 600.649 223.238C600.71 230.885 600.764 238.532 600.798 246.179C600.533 282.742 600.533 282.742 607.584 318.441C607.886 319.426 608.188 320.412 608.499 321.428C616.885 348.163 629.389 372.72 647.397 394.253C648.134 395.162 648.872 396.07 649.631 397.007C656.01 404.753 662.901 411.911 670.026 418.972C670.505 419.447 670.983 419.921 671.477 420.41C675.973 424.865 680.484 429.305 685 433.74C695.835 444.39 706.468 454.907 715.397 467.253C716.436 468.595 717.478 469.934 718.526 471.269C725.48 480.416 731.124 490.057 736.397 500.253C736.748 500.92 737.1 501.586 737.462 502.273C761.195 547.684 765.003 600.057 752.397 649.253C752.225 649.945 752.052 650.638 751.875 651.351C747.702 667.843 740.349 691.693 727.397 703.253C723.786 705.058 720.271 704.915 716.397 704.253C695.671 695.454 675.751 675.137 661.397 658.253C660.126 656.764 660.126 656.764 658.83 655.245C654.342 649.969 649.913 644.662 645.584 639.253C642.457 635.401 639.375 632.211 635.397 629.253C635.31 629.801 635.224 630.349 635.135 630.913C626.669 678.682 594.439 724.988 561.397 759.253C560.833 759.839 560.27 760.424 559.689 761.027C552.314 768.647 544.788 775.747 536.397 782.253C534.906 783.426 533.415 784.599 531.924 785.773C530.312 787.038 528.698 788.302 527.084 789.566C526.319 790.165 525.554 790.764 524.765 791.382C520.739 794.511 516.686 797.488 512.397 800.253C511.315 800.965 510.234 801.676 509.12 802.409C481.296 820.362 452.092 832.195 419.772 839.066C418.801 839.273 417.83 839.48 416.829 839.693C404.788 842.144 392.832 842.493 380.584 842.503C379.811 842.504 379.038 842.504 378.242 842.505C365.411 842.487 353.016 841.721 340.397 839.253C339.072 839.004 339.072 839.004 337.72 838.749C307.842 832.993 280.473 820.715 254.397 805.253C253.491 804.727 252.584 804.201 251.651 803.659C249.858 802.59 248.117 801.435 246.397 800.253C246.397 799.593 246.397 798.933 246.397 798.253C245.407 797.942 245.407 797.942 244.397 797.624C240.274 795.74 236.959 793.096 233.397 790.316C232.268 789.442 232.268 789.442 231.116 788.55C217.423 777.882 203.219 766.634 192.08 753.245C190.041 750.832 187.873 748.557 185.709 746.253C166.59 725.248 151.352 699.923 139.397 674.253C138.795 672.961 138.795 672.961 138.182 671.644C123.397 639.553 123.397 639.553 123.397 629.253C115.113 635.781 108.698 643.921 102.116 652.081C87.788 669.835 71.881 684.877 53.3969 698.253C52.4223 698.963 51.4478 699.674 50.4437 700.405C45.5225 703.694 41.6536 704.913 35.7211 704.855C31.0936 703.657 28.8487 701.005 26.4398 696.995C25.8074 695.713 25.1897 694.423 24.5844 693.128C24.2474 692.426 23.9105 691.725 23.5634 691.002C22.8534 689.512 22.1505 688.02 21.454 686.524C20.7609 685.035 20.0603 683.55 19.3515 682.068C-4.13142 632.979 -5.80784 576.173 11.9633 525.019C20.6632 501.645 32.9925 480.783 48.3969 461.253C49.035 460.407 49.673 459.562 50.3305 458.691C59.9274 446.332 71.6 435.175 83.4381 424.983C93.6311 415.983 103.13 406.043 111.397 395.253C112.203 394.253 113.008 393.252 113.838 392.222C120.156 384.329 125.447 376.059 130.397 367.253C130.799 366.55 131.201 365.846 131.616 365.122C148.983 334.546 157.662 300.771 157.702 265.677C157.706 263.007 157.723 260.336 157.743 257.666C157.797 250.085 157.828 242.504 157.853 234.922C158.051 179.661 167.753 126.953 204.397 83.2531C205.082 82.4197 205.082 82.4197 205.782 81.5695C217.056 67.8699 229.153 55.8417 243.397 45.2531C243.955 44.8293 244.512 44.4055 245.087 43.9689C254.649 36.7083 264.757 30.7947 275.397 25.2531C276.114 24.8729 276.831 24.4928 277.569 24.1012C308.657 7.78195 343.121 0.035012 378.084 0.00305176Z" fill="#FEFEFE"/>
<path d="M378.084 0.00305176C378.853 0.00204468 379.621 0.0010376 380.412 0C393.915 0.011907 407.083 0.865699 420.397 3.25305C421.494 3.44593 421.494 3.44593 422.613 3.6427C457.864 10.1574 492.793 26.4023 520.397 49.2531C520.974 49.7289 521.552 50.2047 522.146 50.6949C533.713 60.2827 544.089 70.4182 553.397 82.2531C554.584 83.7148 554.584 83.7148 555.795 85.2062C579.598 115.091 594.338 151.509 599.397 189.253C599.485 189.897 599.574 190.54 599.665 191.203C600.607 199.17 600.564 207.154 600.596 215.164C600.608 217.855 600.628 220.546 600.649 223.238C600.71 230.885 600.764 238.532 600.798 246.179C600.533 282.742 600.533 282.742 607.584 318.441C607.886 319.426 608.188 320.412 608.499 321.428C616.885 348.163 629.389 372.72 647.397 394.253C648.134 395.162 648.872 396.07 649.631 397.007C656.01 404.753 662.901 411.911 670.026 418.972C670.505 419.447 670.983 419.921 671.477 420.41C675.973 424.865 680.484 429.305 685 433.74C695.835 444.39 706.468 454.907 715.397 467.253C716.436 468.595 717.478 469.934 718.526 471.269C725.48 480.416 731.124 490.057 736.397 500.253C736.748 500.92 737.1 501.586 737.462 502.273C761.195 547.684 765.003 600.057 752.397 649.253C752.225 649.945 752.052 650.638 751.875 651.351C747.702 667.843 740.349 691.693 727.397 703.253C723.786 705.058 720.271 704.915 716.397 704.253C695.671 695.454 675.751 675.137 661.397 658.253C660.126 656.764 660.126 656.764 658.83 655.245C654.342 649.969 649.913 644.662 645.584 639.253C642.457 635.401 639.375 632.211 635.397 629.253C635.31 629.801 635.224 630.349 635.135 630.913C626.669 678.682 594.439 724.988 561.397 759.253C560.833 759.839 560.27 760.424 559.689 761.027C552.314 768.647 544.788 775.747 536.397 782.253C534.906 783.426 533.415 784.599 531.924 785.773C530.312 787.038 528.698 788.302 527.084 789.566C526.319 790.165 525.554 790.764 524.765 791.382C520.739 794.511 516.686 797.488 512.397 800.253C511.315 800.965 510.234 801.676 509.12 802.409C481.296 820.362 452.092 832.195 419.772 839.066C418.801 839.273 417.83 839.48 416.829 839.693C404.788 842.144 392.832 842.493 380.584 842.503C379.811 842.504 379.038 842.504 378.242 842.505C365.411 842.487 353.016 841.721 340.397 839.253C339.072 839.004 339.072 839.004 337.72 838.749C307.842 832.993 280.473 820.715 254.397 805.253C253.491 804.727 252.584 804.201 251.651 803.659C249.858 802.59 248.117 801.435 246.397 800.253C246.397 799.593 246.397 798.933 246.397 798.253C245.407 797.942 245.407 797.942 244.397 797.624C240.274 795.74 236.959 793.096 233.397 790.316C232.268 789.442 232.268 789.442 231.116 788.55C217.423 777.882 203.219 766.634 192.08 753.245C190.041 750.832 187.873 748.557 185.709 746.253C166.59 725.248 151.352 699.923 139.397 674.253C138.795 672.961 138.795 672.961 138.182 671.644C123.397 639.553 123.397 639.553 123.397 629.253C115.113 635.781 108.698 643.921 102.116 652.081C87.788 669.835 71.881 684.877 53.3969 698.253C52.4223 698.963 51.4478 699.674 50.4437 700.405C45.5225 703.694 41.6536 704.913 35.7211 704.855C31.0936 703.657 28.8487 701.005 26.4398 696.995C25.8074 695.713 25.1897 694.423 24.5844 693.128C24.2474 692.426 23.9105 691.725 23.5634 691.002C22.8534 689.512 22.1505 688.02 21.454 686.524C20.7609 685.035 20.0603 683.55 19.3515 682.068C-4.13142 632.979 -5.80784 576.173 11.9633 525.019C20.6632 501.645 32.9925 480.783 48.3969 461.253C49.035 460.407 49.673 459.562 50.3305 458.691C59.9274 446.332 71.6 435.175 83.4381 424.983C93.6311 415.983 103.13 406.043 111.397 395.253C112.203 394.253 113.008 393.252 113.838 392.222C120.156 384.329 125.447 376.059 130.397 367.253C130.799 366.55 131.201 365.846 131.616 365.122C148.983 334.546 157.662 300.771 157.702 265.677C157.706 263.007 157.723 260.336 157.743 257.666C157.797 250.085 157.828 242.504 157.853 234.922C158.051 179.661 167.753 126.953 204.397 83.2531C205.082 82.4197 205.082 82.4197 205.782 81.5695C217.056 67.8699 229.153 55.8417 243.397 45.2531C243.955 44.8293 244.512 44.4055 245.087 43.9689C254.649 36.7083 264.757 30.7947 275.397 25.2531C276.114 24.8729 276.831 24.4928 277.569 24.1012C308.657 7.78195 343.121 0.035012 378.084 0.00305176ZM221.397 142.253C204.607 162.651 201.083 185.321 201.026 210.905C201.017 213.013 201.008 215.12 200.998 217.227C200.982 221.634 200.974 226.041 200.971 230.448C200.966 236.035 200.928 241.621 200.883 247.208C200.853 251.561 200.846 255.913 200.845 260.266C200.84 262.323 200.828 264.379 200.807 266.435C200.627 285.426 203.207 303.39 212.397 320.253C212.92 321.265 213.444 322.277 213.983 323.319C220.474 335.251 230.21 344.53 240.209 353.566C241.185 354.449 242.161 355.332 243.166 356.241C243.902 356.905 244.639 357.569 245.397 358.253C244.949 362.631 242.016 365.028 239.084 368.003C199.654 409.611 180.64 472.372 179.448 528.885C179.412 530.575 179.362 532.264 179.303 533.953C178.432 559.912 182.067 585.356 189.397 610.253C189.725 611.377 189.725 611.377 190.059 612.524C199.55 644.106 217.863 671.576 240.397 695.253C241.049 695.958 241.701 696.663 242.373 697.39C268.104 724.38 306.133 742.99 342.397 750.253C343.501 750.477 343.501 750.477 344.628 750.706C392.391 759.96 445.485 749.3 485.959 722.253C488.806 720.297 491.611 718.294 494.397 716.253C495.019 715.8 495.64 715.346 496.281 714.879C509.814 704.891 522.132 693.594 532.397 680.253C533.047 679.481 533.696 678.709 534.366 677.913C565.79 640.441 579.66 589.497 579.584 541.378C579.583 540.606 579.583 539.835 579.582 539.04C579.528 518.492 577.412 499.122 573.001 479.026C572.488 476.67 572.003 474.312 571.534 471.948C565.12 441.734 553.142 410.006 534.397 385.253C533.712 384.343 533.028 383.433 532.323 382.495C528.255 377.268 523.861 372.352 519.377 367.48C518.397 366.377 518.397 366.377 517.397 365.253C516.795 364.58 516.193 363.907 515.573 363.214C514.397 361.253 514.397 361.253 514.338 359.351C515.973 356.112 518.636 354.03 521.334 351.691C542.437 332.728 554.925 309.478 558.397 281.253C558.535 278.369 558.544 275.49 558.542 272.602C558.545 271.766 558.549 270.929 558.552 270.066C558.562 267.315 558.564 264.563 558.565 261.812C558.568 259.882 558.571 257.953 558.575 256.023C558.581 251.981 558.583 247.939 558.582 243.896C558.582 238.751 558.596 233.607 558.613 228.462C558.624 224.475 558.626 220.488 558.626 216.501C558.627 214.606 558.631 212.711 558.639 210.817C558.735 184.945 554.522 159.956 536.397 140.253C535.66 139.424 534.922 138.595 534.162 137.741C518.882 121.438 497.725 112.661 475.493 111.85C458.474 111.605 444.077 115.818 429.397 124.253C428.14 124.943 428.14 124.943 426.858 125.648C410.876 135.266 398.444 152.475 393.397 170.253C391.415 178.516 391.148 186.471 391.272 194.941C391.281 196.131 391.29 197.321 391.299 198.548C391.323 201.45 391.355 204.351 391.397 207.253C390.737 206.923 390.077 206.593 389.397 206.253C386.429 206.154 383.489 206.114 380.522 206.128C379.706 206.124 378.89 206.12 378.049 206.116C377.259 206.118 376.469 206.119 375.655 206.12C374.574 206.122 374.574 206.122 373.472 206.124C371.338 206.257 369.449 206.671 367.397 207.253C367.418 206.514 367.439 205.774 367.46 205.013C368.069 180.254 365.08 159.518 348.397 140.253C347.797 139.459 347.198 138.665 346.58 137.847C333.948 122.841 313.595 114.07 294.397 112.253C265.539 110.514 240.753 120.685 221.397 142.253Z" fill="#3E485B"/>
<path d="M626.397 384.253C629.059 385.338 630.591 386.45 632.635 388.519C635.558 391.412 638.615 393.852 641.897 396.315C648.25 401.128 648.25 401.128 651.116 403.562C653.325 405.551 653.325 405.551 656.397 405.253C658.506 406.981 658.506 406.981 660.969 409.437C661.894 410.353 662.82 411.269 663.773 412.212C664.783 413.228 665.793 414.244 666.803 415.261C667.848 416.304 668.894 417.346 669.94 418.389C672.14 420.585 674.335 422.786 676.527 424.992C679.299 427.781 682.085 430.557 684.875 433.329C695.729 444.126 706.435 454.784 715.397 467.253C716.435 468.595 717.477 469.934 718.526 471.269C725.48 480.415 731.124 490.057 736.397 500.253C736.748 500.92 737.1 501.586 737.462 502.273C761.195 547.684 765.003 600.057 752.397 649.253C752.225 649.945 752.052 650.637 751.875 651.351C747.702 667.842 740.349 691.693 727.397 703.253C723.786 705.058 720.271 704.915 716.397 704.253C695.671 695.454 675.751 675.137 661.397 658.253C660.55 657.26 659.703 656.268 658.83 655.245C654.342 649.969 649.913 644.662 645.584 639.253C642.457 635.401 639.375 632.211 635.397 629.253C634.737 632.223 634.077 635.193 633.397 638.253C632.073 634.283 633.03 632.136 634.397 628.253C635.057 627.923 635.717 627.593 636.397 627.253C637.16 624.412 637.783 621.637 638.334 618.753C638.506 617.873 638.678 616.993 638.855 616.087C642.578 596.229 644.505 575.943 644.635 555.749C644.645 554.488 644.655 553.227 644.665 551.928C644.69 547.849 644.703 543.77 644.709 539.69C644.711 538.993 644.712 538.296 644.713 537.578C644.783 487.982 639.721 437.731 626.952 389.67C626.397 387.253 626.397 387.253 626.397 384.253Z" fill="#303A4D"/>
<path d="M133.397 381.253C134.624 384.934 134.026 385.951 132.772 389.565C122.881 420.56 118.871 453.987 115.397 486.253C115.278 487.326 115.16 488.4 115.037 489.506C110.871 528.65 111.854 570.107 119.256 608.776C119.395 609.501 119.534 610.225 119.676 610.972C120.054 612.908 120.449 614.84 120.846 616.772C121.408 620.325 121.493 623.662 121.397 627.253C122.057 627.253 122.717 627.253 123.397 627.253C123.397 627.913 123.397 628.573 123.397 629.253C122.034 630.522 122.034 630.522 120.084 632.065C113.224 637.895 107.749 645.097 102.116 652.081C87.788 669.835 71.881 684.877 53.3969 698.253C52.4223 698.963 51.4478 699.673 50.4437 700.405C45.5225 703.694 41.6536 704.913 35.7211 704.854C31.0936 703.657 28.8487 701.005 26.4398 696.995C25.8074 695.713 25.1897 694.423 24.5844 693.128C24.2474 692.426 23.9105 691.725 23.5634 691.002C22.8534 689.512 22.1505 688.019 21.454 686.523C20.7609 685.035 20.0603 683.55 19.3515 682.068C-4.13142 632.979 -5.80784 576.173 11.9633 525.019C20.6632 501.645 32.9925 480.783 48.3969 461.253C49.354 459.984 49.354 459.984 50.3305 458.69C59.9234 446.337 71.5897 435.186 83.4249 425C87.1068 421.738 90.5541 418.239 94.0219 414.753C95.1085 413.672 95.1085 413.672 96.2172 412.569C100.491 408.288 104.521 403.899 108.397 399.253C108.397 402.253 108.397 402.253 106.397 405.253C119.786 394.18 119.786 394.18 132.397 382.253C132.727 381.923 133.057 381.593 133.397 381.253Z" fill="#303A4E"/>
<path d="M251.382 802.278C252.432 802.909 252.432 802.909 253.502 803.554C254.308 804.03 255.113 804.507 255.942 804.998C256.814 805.515 257.686 806.033 258.584 806.566C282.721 820.542 307.763 831.114 334.967 837.499C335.769 837.748 336.571 837.997 337.397 838.253C339.177 841.814 338.667 845.893 338.709 849.816C338.738 850.685 338.767 851.554 338.797 852.45C338.88 860.989 336.152 868.248 330.377 874.616C324.303 879.636 316.268 883.358 308.371 883.407C307.333 883.415 306.294 883.424 305.224 883.433C304.085 883.437 302.946 883.441 301.772 883.446C299.972 883.458 299.972 883.458 298.135 883.471C294.15 883.496 290.166 883.512 286.182 883.526C284.807 883.532 283.432 883.537 282.057 883.543C276.331 883.564 270.604 883.583 264.878 883.594C256.695 883.61 248.511 883.643 240.328 883.701C234.563 883.739 228.798 883.759 223.033 883.764C219.596 883.768 216.16 883.78 212.723 883.812C208.877 883.844 205.032 883.844 201.186 883.836C200.065 883.853 198.944 883.869 197.789 883.886C188.989 883.817 180.719 881.956 173.89 876.105C167.944 870.025 165.394 863.739 164.959 855.316C165.22 848.31 167.542 841.958 172.147 836.628C177.216 832.082 183.463 829.454 189.568 826.592C192.912 825.009 196.237 823.387 199.561 821.761C207.488 817.887 215.437 814.059 223.397 810.253C225.126 809.425 225.126 809.425 226.89 808.58C229.948 807.123 233.014 805.684 236.084 804.253C236.98 803.826 237.875 803.399 238.798 802.959C240.028 802.393 240.028 802.393 241.284 801.816C241.987 801.487 242.69 801.158 243.415 800.819C246.571 799.917 248.538 800.81 251.382 802.278Z" fill="#FEAB23"/>
<path d="M520.397 803.253C521.405 803.716 522.414 804.179 523.453 804.656C526.999 806.31 530.512 808.025 534.022 809.753C535.954 810.697 537.887 811.64 539.819 812.582C541.121 813.217 542.422 813.853 543.723 814.489C550.694 817.896 557.703 821.221 564.724 824.525C583.511 833.445 583.511 833.445 587.959 838.816C588.579 839.539 589.199 840.262 589.838 841.007C594.234 847.341 594.084 853.781 593.397 861.253C591.743 868.414 588.336 873.891 582.397 878.253C576.528 881.505 571.003 883.368 564.282 883.4C563.249 883.408 562.216 883.415 561.152 883.422C559.46 883.426 559.46 883.426 557.734 883.43C555.946 883.44 555.946 883.44 554.121 883.45C550.17 883.47 546.219 883.482 542.268 883.491C540.904 883.496 539.539 883.5 538.175 883.504C531.761 883.523 525.347 883.537 518.933 883.545C511.55 883.555 504.169 883.581 496.787 883.622C491.067 883.652 485.348 883.667 479.629 883.67C476.22 883.673 472.811 883.681 469.402 883.707C465.589 883.731 461.778 883.73 457.965 883.723C456.851 883.736 455.738 883.749 454.59 883.762C444.383 883.695 435.635 881.352 428.12 874.191C423.591 869.098 420.274 863.852 420.264 856.909C420.263 856.075 420.261 855.241 420.26 854.382C420.264 853.515 420.268 852.647 420.272 851.753C420.268 850.886 420.264 850.018 420.26 849.124C420.261 848.29 420.263 847.456 420.264 846.597C420.265 845.836 420.266 845.075 420.267 844.29C420.397 842.253 420.397 842.253 421.397 839.253C420.737 838.923 420.077 838.593 419.397 838.253C420.146 838.078 420.894 837.902 421.666 837.722C448.18 831.454 473.905 823.469 497.12 808.706C498.46 807.855 498.46 807.855 499.827 806.986C501.493 805.903 503.141 804.791 504.766 803.647C510.882 799.625 513.974 800.087 520.397 803.253Z" fill="#FEAB23"/>
<path d="M407.647 214.565C415.034 220.259 421.648 226.875 428.368 233.326C430.713 235.553 433.102 237.727 435.507 239.889C448.839 251.893 448.839 251.893 450.209 257.69C448.706 264.281 445.064 268.898 439.975 273.218C436.22 276.43 432.779 279.863 429.35 283.413C428.246 284.548 427.142 285.683 426.037 286.817C424.341 288.563 422.649 290.313 420.971 292.076C411.428 302.082 400.622 311.274 386.018 311.624C370.726 311.928 358.154 311.08 346.397 300.253C343.582 297.509 340.811 294.729 338.061 291.921C335.861 289.718 333.637 287.649 331.272 285.628C311.047 268.298 311.047 268.298 309.397 260.253C309.285 254.35 311.373 251.456 315.248 247.351C319.179 243.513 323.269 239.875 327.397 236.253C329.107 234.713 330.815 233.172 332.522 231.628C336.782 227.799 341.043 223.976 345.397 220.253C346.166 219.581 346.936 218.91 347.729 218.218C365.38 203.346 388.35 201.518 407.647 214.565Z" fill="#FEAC23"/>
<path d="M315.397 247.253C316.057 247.583 316.717 247.913 317.397 248.253C317.397 249.573 317.397 250.893 317.397 252.253C317.969 252.371 318.542 252.488 319.131 252.61C321.572 253.303 323.446 254.281 325.643 255.546C337.895 262.399 349.726 267.073 363.397 270.253C364.221 270.46 365.044 270.668 365.893 270.882C386.092 273.875 406.621 269.994 424.397 260.253C425.034 259.911 425.672 259.57 426.329 259.218C435.021 254.646 435.021 254.646 442.397 248.253C445.769 249.648 447.647 251.016 449.397 254.253C450.413 260.012 448.595 263.224 445.491 267.847C443.721 269.881 442.019 271.483 439.975 273.218C436.22 276.43 432.779 279.863 429.35 283.413C428.246 284.548 427.142 285.683 426.037 286.817C424.341 288.563 422.649 290.313 420.971 292.076C411.428 302.082 400.622 311.274 386.018 311.624C370.726 311.928 358.154 311.08 346.397 300.253C343.582 297.509 340.811 294.729 338.061 291.921C335.861 289.718 333.637 287.649 331.272 285.628C311.047 268.298 311.047 268.298 309.397 260.253C309.508 254.149 311.355 251.502 315.397 247.253Z" fill="#FD9A1F"/>
<path d="M520.397 803.253C521.997 803.987 521.997 803.987 523.63 804.736C527.347 806.467 531.029 808.258 534.709 810.066C535.964 810.676 537.218 811.286 538.473 811.896C546.141 815.627 553.777 819.423 561.397 823.253C559.397 824.253 559.397 824.253 557.522 823.714C554.834 823.131 553.837 823.667 551.397 824.878C550.601 825.254 549.806 825.631 548.987 826.019C548.132 826.426 547.277 826.833 546.397 827.253C506.79 844.961 464.354 849.631 421.397 849.253C421.397 852.223 421.397 855.193 421.397 858.253C421.067 858.253 420.737 858.253 420.397 858.253C420.37 855.649 420.35 853.045 420.334 850.441C420.326 849.703 420.318 848.965 420.309 848.204C420.294 844.954 420.362 842.359 421.397 839.253C420.737 838.923 420.077 838.593 419.397 838.253C420.146 838.078 420.894 837.902 421.666 837.722C448.18 831.454 473.905 823.468 497.12 808.706C498.46 807.855 498.46 807.855 499.827 806.986C501.493 805.903 503.141 804.791 504.766 803.647C510.893 799.617 513.965 800.087 520.397 803.253Z" fill="#FD9B1F"/>
<path d="M249.397 801.253C250.791 801.973 252.158 802.745 253.502 803.554C254.308 804.03 255.113 804.507 255.942 804.998C256.814 805.515 257.686 806.033 258.584 806.566C282.721 820.542 307.763 831.115 334.967 837.499C335.769 837.748 336.571 837.997 337.397 838.253C338.545 840.55 338.512 841.836 338.495 844.386C338.491 845.192 338.488 845.997 338.485 846.827C338.476 847.669 338.468 848.511 338.459 849.378C338.455 850.228 338.45 851.077 338.446 851.952C338.434 854.053 338.416 856.153 338.397 858.253C338.067 858.253 337.737 858.253 337.397 858.253C337.397 855.283 337.397 852.313 337.397 849.253C336.777 849.269 336.157 849.284 335.518 849.301C289.682 850.289 244.565 843.261 203.397 822.253C204.397 819.253 204.397 819.253 207.52 817.491C208.904 816.839 210.293 816.198 211.686 815.566C212.423 815.222 213.159 814.878 213.918 814.524C216.282 813.424 218.652 812.338 221.022 811.253C222.596 810.522 224.171 809.79 225.745 809.058C233.114 805.637 233.114 805.637 236.474 804.126C237.762 803.541 239.043 802.94 240.315 802.322C245.95 799.678 245.95 799.678 249.397 801.253Z" fill="#FD9B1F"/>
<path d="M489.397 192.253C496.962 197.359 501.928 203.86 503.987 212.819C504.303 215.033 504.584 217.024 504.397 219.253C503.737 219.913 503.077 220.573 502.397 221.253C497.336 220.993 492.76 218.996 488.08 217.19C475.881 212.929 463.727 214.824 451.92 219.062C448.707 220.148 445.765 220.894 442.397 221.253C441.397 220.253 441.397 220.253 441.022 216.315C441.088 209.396 444.565 204.239 448.084 198.503C459.511 187.385 475.245 184.742 489.397 192.253Z" fill="#3A4255"/>
<path d="M302.811 192.694C309.777 197.715 314.57 204.134 317.397 212.253C317.647 215.941 317.647 215.941 317.397 219.253C316.737 219.913 316.077 220.573 315.397 221.253C310.336 220.994 305.76 218.996 301.08 217.191C289.109 213.008 274.824 214.12 263.397 219.253C262.687 219.633 261.976 220.014 261.245 220.405C258.672 221.585 257.052 221.042 254.397 220.253C253.397 219.253 253.397 219.253 253.342 217.503C253.855 211.086 255.898 206.606 259.397 201.253C260.232 199.923 260.232 199.923 261.084 198.566C272.291 187.359 289.021 184.46 302.811 192.694Z" fill="#394255"/>
<path d="M341.397 294.253C344.222 295.543 346.279 296.93 348.522 299.065C352.675 302.692 357.179 305.427 362.397 307.253C365.719 307.049 365.719 307.049 368.397 306.253C369.387 306.913 370.377 307.573 371.397 308.253C371.397 308.583 371.397 308.913 371.397 309.253C377.007 309.583 382.617 309.913 388.397 310.253C388.397 310.583 388.397 310.913 388.397 311.253C373.179 311.954 360.435 311.911 348.053 301.812C345.561 299.466 343.471 296.975 341.397 294.253Z" fill="#F78A12"/>
<path d="M241.397 790.253C242.057 790.583 242.717 790.913 243.397 791.253C243.727 792.243 244.057 793.233 244.397 794.253C245.057 794.583 245.717 794.913 246.397 795.253C246.397 794.593 246.397 793.933 246.397 793.253C248.047 793.583 249.697 793.913 251.397 794.253C251.067 795.903 250.737 797.553 250.397 799.253C251.717 799.583 253.037 799.913 254.397 800.253C254.397 800.913 254.397 801.573 254.397 802.253C250.245 800.811 247.097 798.752 243.584 796.128C242.609 795.403 241.633 794.679 240.627 793.933C239.891 793.378 239.155 792.824 238.397 792.253C239.387 791.593 240.377 790.933 241.397 790.253Z" fill="#444E60"/>
<path d="M394.397 209.253C404.846 210.463 412.565 217.717 419.397 225.253C415.348 225.253 414.523 223.772 411.647 221.003C404.996 214.562 404.996 214.562 396.397 212.253C396.397 211.593 396.397 210.933 396.397 210.253C395.737 209.923 395.077 209.593 394.397 209.253Z" fill="#F69E14"/>
<path d="M219.397 813.253C219.397 813.913 219.397 814.573 219.397 815.253C216.749 816.714 215.502 817.253 212.397 817.253C212.067 818.573 211.737 819.893 211.397 821.253C208.757 821.583 206.117 821.913 203.397 822.253C204.397 819.253 204.397 819.253 207.268 817.647C208.445 817.125 209.622 816.603 210.834 816.065C212.009 815.536 213.183 815.006 214.393 814.46C217.397 813.253 217.397 813.253 219.397 813.253Z" fill="#F7911A"/>
<path d="M345.397 220.253C346.057 220.583 346.717 220.913 347.397 221.253C346.155 222.718 344.903 224.175 343.647 225.628C342.951 226.44 342.255 227.252 341.537 228.089C339.514 230.134 337.99 231.11 335.397 232.253C333.688 233.794 333.688 233.794 332.397 235.253C331.737 234.923 331.077 234.593 330.397 234.253C335.188 229.327 340.174 224.716 345.397 220.253Z" fill="#F69D13"/>
<path d="M518.397 804.253C524.425 804.729 529.164 807.45 534.397 810.253C533.407 810.583 532.417 810.913 531.397 811.253C530.427 810.758 529.458 810.263 528.459 809.753C525.602 808.003 525.602 808.003 523.022 808.565C522.486 808.792 521.949 809.019 521.397 809.253C521.067 808.263 520.737 807.273 520.397 806.253C519.737 805.593 519.077 804.933 518.397 804.253Z" fill="#F68A10"/>
<path d="M424.397 287.253C424.727 288.573 425.057 289.893 425.397 291.253C424.737 291.253 424.077 291.253 423.397 291.253C423.067 291.913 422.737 292.573 422.397 293.253C421.238 294.326 420.046 295.365 418.834 296.378C418.194 296.917 417.553 297.456 416.893 298.011C416.399 298.421 415.906 298.831 415.397 299.253C414.737 298.923 414.077 298.593 413.397 298.253C417.027 294.623 420.657 290.993 424.397 287.253Z" fill="#F7F1E2"/>
<path d="M434.397 836.253C430.058 839.372 426.633 839.996 421.397 840.253C420.737 839.593 420.077 838.933 419.397 838.253C421.52 837.724 423.645 837.205 425.772 836.691C426.955 836.401 428.139 836.111 429.358 835.812C432.397 835.253 432.397 835.253 434.397 836.253Z" fill="#D9A03A"/>
<path d="M511.397 800.253C514.367 801.243 517.337 802.233 520.397 803.253C516.647 806.253 516.647 806.253 514.397 806.253C514.397 804.933 514.397 803.613 514.397 802.253C513.407 802.583 512.417 802.913 511.397 803.253C511.397 802.263 511.397 801.273 511.397 800.253Z" fill="#F6921C"/>
<path d="M359.397 210.253C360.387 210.583 361.377 210.913 362.397 211.253C361.469 211.686 360.541 212.119 359.584 212.565C356.925 213.973 355.316 215.014 353.397 217.253C352.407 216.923 351.417 216.593 350.397 216.253C351.825 215.22 353.265 214.202 354.709 213.19C355.51 212.622 356.31 212.053 357.135 211.468C357.881 211.067 358.628 210.666 359.397 210.253Z" fill="#F69D14"/>
<path d="M317.397 270.253C318.387 270.583 319.377 270.913 320.397 271.253C320.397 271.913 320.397 272.573 320.397 273.253C321.717 273.913 323.037 274.573 324.397 275.253C324.397 276.243 324.397 277.233 324.397 278.253C318.522 273.628 318.522 273.628 317.397 270.253Z" fill="#F6982A"/>
<path d="M340.397 220.253C341.057 220.253 341.717 220.253 342.397 220.253C342.727 221.243 343.057 222.233 343.397 223.253C341.747 224.573 340.097 225.893 338.397 227.253C338.067 225.933 337.737 224.613 337.397 223.253C338.717 223.253 340.037 223.253 341.397 223.253C341.067 222.263 340.737 221.273 340.397 220.253Z" fill="#F7F3E4"/>
</svg>
